<svg width="60" height="60" viewBox="0 0 60 60" fill="none" xmlns="http://www.w3.org/2000/svg">
<rect width="60" height="60" rx="30" fill="#3A7C2C"/>
<rect x="6" y="6" width="48" height="48" rx="24" fill="white"/>
<rect x="12" y="12" width="37" height="37" rx="18.5" fill="#3A7C2C"/>
<path d="M25.7314 18.8105L25.916 21.374C27.502 19.3916 29.6279 18.4004 32.2939 18.4004C34.6455 18.4004 36.3955 19.0908 37.5439 20.4717C38.6924 21.8525 39.2803 23.917 39.3076 26.665V41H33.3809V26.8086C33.3809 25.5508 33.1074 24.6416 32.5605 24.0811C32.0137 23.5068 31.1045 23.2197 29.833 23.2197C28.165 23.2197 26.9141 23.9307 26.0801 25.3525V41H20.1533V18.8105H25.7314Z" fill="white"/>
</svg>
