<svg width="144" height="40" viewBox="0 0 144 40" fill="none" xmlns="http://www.w3.org/2000/svg">
<path d="M81.9351 19.3564C81.7147 19.2693 81.4798 19.2244 81.2428 19.2237H73.3357L78.2059 7.20554C78.2945 6.98563 78.3396 6.75058 78.3386 6.51348C78.34 6.073 78.1875 5.64584 77.9074 5.30577C77.6274 4.96571 77.2373 4.73408 76.8046 4.65088C76.3719 4.56769 75.9237 4.63815 75.5374 4.8501C75.1512 5.06205 74.8511 5.40219 74.6889 5.81178L65.5806 28.3122H69.6451L71.7967 23.0072H81.2525C81.6931 23.0054 82.1193 22.8501 82.4577 22.568C82.7961 22.2859 83.0255 21.8946 83.1064 21.4616C83.1872 21.0286 83.1145 20.581 82.9007 20.1958C82.6869 19.8107 82.3454 19.5121 81.9351 19.3516V19.3564Z" fill="white"/>
<path d="M83.1967 28.3194H87.2636L78.1938 5.81901C78.0099 5.35247 77.6481 4.97808 77.188 4.7782C76.728 4.57832 76.2073 4.56932 75.7406 4.75319C75.2739 4.93705 74.8994 5.29872 74.6995 5.75862C74.4995 6.21853 74.4905 6.739 74.6745 7.20554L83.1967 28.3194Z" fill="white"/>
<path d="M69.2687 14.893H57.876V8.43535H71.8064L73.2923 4.65675H56.0331C55.7301 4.65644 55.43 4.71594 55.1501 4.83186C54.8701 4.94778 54.6158 5.11782 54.4018 5.33224C54.1878 5.54665 54.0182 5.80121 53.9028 6.08131C53.7875 6.3614 53.7286 6.66151 53.7295 6.96442V28.2784H57.8881V18.6619H67.778L69.2687 14.893Z" fill="white"/>
<path d="M26.8193 1.07107C27.227 1.99944 26.718 3.00016 25.9823 3.50654L25.2393 3.82966L44.1218 12.1103L47.7063 10.5429C48.2467 10.2776 48.7773 10.1233 49.2767 10.3789C49.2489 10.3574 49.218 10.3403 49.185 10.3283L25.9847 0.154755C25.9847 0.154755 25.9847 0.154755 25.963 0.154755C26.1609 0.240711 26.339 0.366399 26.4863 0.524023C26.6336 0.681648 26.747 0.867847 26.8193 1.07107Z" fill="white"/>
<path d="M47.8101 13.4992L44.1218 12.1126L25.2393 21.5169L26.0956 22.0571C26.8193 22.5659 27.2583 23.3905 26.8193 24.2972C26.6604 24.6779 26.3852 24.9986 26.0329 25.2135C26.0356 25.2123 26.0384 25.2116 26.0414 25.2116C26.0443 25.2116 26.0472 25.2123 26.0498 25.2135L49.2767 13.639L49.349 13.598C49.074 13.7499 48.8666 13.6993 48.5434 13.6993C48.2879 13.6826 48.0385 13.6145 47.8101 13.4992Z" fill="white"/>
<path d="M50.0727 12.836C50.2764 12.4269 50.3214 11.9567 50.1989 11.5163C50.0764 11.076 49.7951 10.6965 49.4093 10.4512C49.3667 10.4243 49.3224 10.4001 49.2766 10.3789C49.0212 10.2487 48.7385 10.1808 48.4517 10.1808C48.1649 10.1808 47.8822 10.2487 47.6267 10.3789L44.1218 12.1223L47.6967 13.6921C47.9258 13.7889 48.1716 13.8405 48.4203 13.844C48.7322 13.8424 49.0382 13.7593 49.308 13.6029C49.6391 13.4365 49.9073 13.1675 50.0727 12.836Z" fill="white"/>
<path d="M23.6593 24.3961C23.213 23.4894 23.7124 22.4911 24.4746 21.9534L25.2489 21.5145L6.36881 12.1102L3.89392 13.0917V14.9749L24.4529 25.2184C24.1397 24.9958 23.8706 24.717 23.6593 24.3961Z" fill="white"/>
<path d="M1.14166 13.4992C0.910966 13.3849 0.709889 13.2188 0.554203 13.0138C0.398516 12.8088 0.292454 12.5705 0.244334 12.3176C0.233139 12.2571 0.226687 12.1959 0.225037 12.1344V16.9113C0.225037 17.3973 0.418183 17.8634 0.761984 18.2071C1.10579 18.5508 1.57208 18.7439 2.05829 18.7439C2.5445 18.7439 3.0108 18.5508 3.3546 18.2071C3.6984 17.8634 3.89155 17.3973 3.89155 16.9113V14.9822L1.34429 13.6005C1.32258 13.5908 1.17302 13.5185 1.14166 13.4992Z" fill="white"/>
<path d="M0.25639 12.3176C0.244404 12.2572 0.237146 12.1959 0.23468 12.1344C0.23476 12.1961 0.242046 12.2576 0.25639 12.3176Z" fill="white"/>
<path d="M0.25639 12.3176C0.244404 12.2572 0.237146 12.1959 0.23468 12.1344C0.23476 12.1961 0.242046 12.2576 0.25639 12.3176Z" fill="white"/>
<path d="M1.47692 10.2704C1.62346 10.2287 1.7771 10.218 1.928 10.239C2.29639 10.2562 2.65533 10.3612 2.97488 10.5453L6.36882 12.1126L25.2513 3.82964L24.506 3.5041C23.8643 3.00495 23.2516 1.99459 23.6617 1.06863C23.7379 0.861934 23.8546 0.672509 24.005 0.511445C24.1553 0.350381 24.3363 0.220912 24.5373 0.130615C24.5373 0.130615 24.5156 0.130615 24.5156 0.142672L1.37561 10.2993L1.46727 10.2704H1.47692Z" fill="white"/>
<path d="M23.5677 1.09034C23.3723 1.53421 23.3611 2.03747 23.5366 2.48959C23.7121 2.94171 24.0599 3.30573 24.5036 3.50169L25.249 3.82964L25.9943 3.50411C26.4396 3.30258 26.7867 2.93271 26.9594 2.47566C27.1322 2.01861 27.1165 1.51172 26.9158 1.06622C26.7291 0.647727 26.3876 0.317652 25.963 0.145086C25.881 0.113738 25.811 0.0944475 25.7218 0.0630998C25.3303 -0.0411108 24.9156 -0.0157299 24.5398 0.135441C24.1055 0.317661 23.7576 0.659414 23.5677 1.09034Z" fill="white"/>
<path d="M3.82161 12.0282L3.87227 13.2146L6.36887 12.115L2.99182 10.4271C3.25868 10.5975 3.4759 10.8353 3.62157 11.1164C3.76725 11.3975 3.83625 11.712 3.82161 12.0282Z" fill="white"/>
<path d="M2.8736 10.3716L2.99662 10.4319C2.71672 10.2633 2.39712 10.1717 2.07035 10.1667C1.87235 10.1686 1.67599 10.2028 1.48901 10.2679C1.94639 10.1205 2.44332 10.1577 2.8736 10.3716Z" fill="white"/>
<path d="M2.8736 10.3716L2.99662 10.4319C2.71672 10.2633 2.39712 10.1717 2.07035 10.1667C1.87235 10.1686 1.67599 10.2028 1.48901 10.2679C1.94639 10.1205 2.44332 10.1577 2.8736 10.3716Z" fill="white"/>
<path d="M2.987 10.4319L2.86398 10.3716C2.43289 10.1571 1.93467 10.1207 1.47697 10.2703L1.38531 10.2993L1.32259 10.3403C0.991221 10.4589 0.706223 10.6798 0.508892 10.9712C0.31156 11.2625 0.212146 11.6091 0.225053 11.9607V12.144C0.226703 12.2055 0.233155 12.2667 0.244351 12.3272C0.290697 12.5962 0.397198 12.8513 0.555911 13.0734C0.714625 13.2956 0.921455 13.479 1.16098 13.6101C1.43136 13.7651 1.737 13.8481 2.04866 13.8512C2.29757 13.8491 2.54358 13.7975 2.77231 13.6993L3.87226 13.217V12.0113C3.8788 11.6931 3.80019 11.3789 3.64455 11.1012C3.48892 10.8236 3.26191 10.5925 2.987 10.4319Z" fill="white"/>
<path d="M141.441 27.1089C141.439 26.7793 141.567 26.4621 141.798 26.2271C142.029 25.992 142.344 25.8582 142.674 25.855C143 25.8543 143.312 25.9829 143.543 26.2126C143.775 26.4423 143.905 26.7542 143.906 27.0799V27.0968C143.906 27.4243 143.776 27.7384 143.545 27.9708C143.314 28.2033 143.001 28.3355 142.674 28.3387C142.512 28.3393 142.352 28.308 142.202 28.2466C142.053 28.1852 141.917 28.0949 141.802 27.9809C141.688 27.8668 141.597 27.7313 141.535 27.5821C141.473 27.4329 141.441 27.2729 141.441 27.1113V27.1089ZM143.764 27.0968C143.745 26.8257 143.625 26.5715 143.428 26.3842C143.231 26.1968 142.971 26.0898 142.699 26.084C142.428 26.0783 142.164 26.1743 141.959 26.3532C141.754 26.5321 141.624 26.7809 141.593 27.051V27.1089C141.62 27.3789 141.747 27.6292 141.949 27.8107C142.15 27.9922 142.413 28.092 142.684 28.0905C142.956 28.089 143.217 27.9863 143.416 27.8026C143.616 27.6188 143.74 27.3671 143.764 27.0968ZM142.133 26.4265H142.756C143.072 26.4265 143.306 26.5567 143.306 26.8629C143.311 26.9503 143.288 27.0372 143.241 27.1106C143.193 27.184 143.123 27.24 143.04 27.2704L143.356 27.7286H142.917L142.652 27.3428H142.5V27.7286H142.133V26.424V26.4265ZM142.734 27.0462C142.867 27.0462 142.939 26.9859 142.939 26.8943C142.939 26.8026 142.867 26.7399 142.734 26.7399H142.493V27.0558H142.734V27.0462Z" fill="white"/>
<path d="M25.4733 25.3848C25.6207 25.366 25.766 25.3337 25.9075 25.2883L26.0353 25.2232C26.3464 25.0771 26.6099 24.8461 26.7956 24.557C26.9812 24.2678 27.0814 23.9321 27.0847 23.5885C27.088 23.2449 26.9942 22.9074 26.8141 22.6147C26.634 22.322 26.3749 22.0861 26.0667 21.9341L25.2441 21.5145L24.4361 21.9341C24.0013 22.1506 23.6703 22.5306 23.5156 22.9909C23.3609 23.4511 23.3953 23.9539 23.6111 24.3889C23.7978 24.753 24.0985 25.046 24.4674 25.2232C24.5154 25.2473 24.5645 25.2691 24.6146 25.2883C24.8203 25.3557 25.0349 25.3923 25.2514 25.3968" fill="white"/>
<path d="M39.2299 23.7547L25.2393 30.2244L25.9123 30.7066C26.5226 31.3191 27.034 32.0329 26.8289 32.8479C26.7784 33.0648 26.6824 33.2685 26.5472 33.4456C26.4121 33.6227 26.2409 33.7691 26.045 33.8752L40.7593 27.0703C41.1888 26.8596 41.5188 26.4891 41.6785 26.0382C41.8382 25.5873 41.815 25.0919 41.6139 24.6579C41.4127 24.2239 41.0496 23.8858 40.6022 23.7161C40.1549 23.5464 39.6588 23.5585 39.2203 23.7499L39.2299 23.7547Z" fill="white"/>
<path d="M23.7558 32.8527C23.3264 31.9364 23.7558 31.1407 24.6724 30.7139L25.2224 30.2316L10.7108 23.745C10.4906 23.6467 10.2532 23.5927 10.0122 23.5861C9.77115 23.5795 9.53117 23.6204 9.30595 23.7065C9.08072 23.7926 8.87467 23.9222 8.69955 24.0879C8.52443 24.2536 8.38367 24.4521 8.28531 24.6722C8.18695 24.8923 8.13292 25.1296 8.1263 25.3705C8.11968 25.6115 8.1606 25.8514 8.24673 26.0765C8.33285 26.3017 8.46249 26.5077 8.62825 26.6827C8.79401 26.8578 8.99264 26.9985 9.21279 27.0968L24.4795 33.892C24.0983 33.7305 23.956 33.2482 23.7558 32.8527Z" fill="white"/>
<path d="M26.9206 32.9854C27.1185 32.5408 27.1322 32.0359 26.9586 31.5812C26.785 31.1266 26.4383 30.7592 25.9943 30.5595L25.2297 30.2244L24.4795 30.5692C24.162 30.7153 23.8931 30.9494 23.7046 31.2437C23.5161 31.5379 23.4159 31.88 23.4159 32.2294C23.4159 32.5788 23.5161 32.9209 23.7046 33.2152C23.8931 33.5094 24.162 33.7435 24.4795 33.8896C24.7252 34.0034 24.9927 34.0624 25.2635 34.0624C25.5342 34.0624 25.8017 34.0034 26.0474 33.8896C26.4417 33.7084 26.7533 33.3856 26.9206 32.9854Z" fill="white"/>
<path d="M2.78196 13.6269C2.55649 13.7424 2.3107 13.8128 2.0583 13.8343C1.74721 13.8327 1.44198 13.7495 1.17303 13.5932C1.19601 13.6088 1.22021 13.6225 1.2454 13.6342L3.89879 14.9677V13.1881L2.78196 13.6269Z" fill="white"/>
<path d="M2.05828 19.6698C1.57265 19.6718 1.10746 19.8654 0.764075 20.2087C0.420686 20.552 0.226928 21.017 0.225022 21.5025V30.3136C0.216082 30.56 0.256913 30.8057 0.345077 31.036C0.433241 31.2663 0.566929 31.4764 0.738157 31.6539C0.909385 31.8314 1.11464 31.9726 1.34166 32.069C1.56868 32.1654 1.81282 32.2151 2.05948 32.2151C2.30615 32.2151 2.55028 32.1654 2.7773 32.069C3.00433 31.9726 3.20958 31.8314 3.38081 31.6539C3.55204 31.4764 3.68572 31.2663 3.77389 31.036C3.86205 30.8057 3.90288 30.56 3.89394 30.3136V21.5025C3.8914 21.0168 3.69711 20.5518 3.35334 20.2086C3.00956 19.8654 2.54412 19.6717 2.05828 19.6698Z" fill="white"/>
<path d="M1.16336 13.6004C1.10145 13.5692 1.0432 13.5312 0.989685 13.4871C1.04057 13.5347 1.09933 13.573 1.16336 13.6004Z" fill="white"/>
<path d="M1.16336 13.6004C1.10145 13.5692 1.0432 13.5312 0.989685 13.4871C1.04057 13.5347 1.09933 13.573 1.16336 13.6004Z" fill="white"/>
<path d="M133.524 14.6494C129.091 13.6005 128.041 12.8168 128.041 11.0444V10.9817C128.041 9.47464 129.416 8.26173 131.78 8.26173C135.358 8.14116 136.793 9.92315 137.599 10.8178L140.85 9.19975C140.228 8.15081 137.714 4.67604 131.841 4.67604C127.277 4.67604 123.996 7.39605 123.996 11.3386V11.3989C123.996 15.6381 126.758 17.0728 131.648 18.2544C135.917 19.2431 136.834 20.1304 136.834 21.7702V21.8304C136.834 23.5425 135.254 24.7241 132.769 24.7241C129.457 24.7747 127.429 22.156 126.932 21.107L123.345 22.8794C123.977 24.1526 126.36 28.2567 132.668 28.2881C137.492 28.3073 140.869 25.732 140.869 21.4326V21.3723C140.881 17.5744 138.385 15.831 133.524 14.6494Z" fill="white"/>
<path d="M103.963 19.8242C103.533 20.9289 102.854 21.9192 101.978 22.7178C100.49 23.9249 98.6254 24.5702 96.7097 24.5408C92.3172 24.5408 89.1379 20.9045 89.1379 16.4121V16.3518C89.1379 11.8595 92.3485 8.25209 96.7097 8.25209C98.3982 8.25069 100.046 8.77028 101.428 9.7399C102.398 10.4833 103.177 11.4472 103.7 12.5515L107.511 10.6562C107.039 9.713 106.42 8.85035 105.678 8.10018C105.641 8.0695 105.608 8.03561 105.577 7.9989L105.529 7.92897C103.379 5.93237 100.851 4.55307 96.7459 4.55307C89.7964 4.55307 84.9142 9.8894 84.9142 16.4097V16.47C84.9142 23.0602 89.8977 28.2664 96.5819 28.2664C100.769 28.2664 103.358 26.7689 105.702 24.3937L105.845 24.2514C106.592 23.4187 107.217 22.4833 107.7 21.4736L103.963 19.8242Z" fill="white"/>
<path d="M122.457 4.65674H103.239C104.689 5.2479 106.011 6.11334 107.133 7.20554L107.193 7.26583C107.23 7.2971 107.265 7.33095 107.297 7.3671H107.285C107.644 7.72567 107.972 8.11453 108.264 8.52938H112.727V28.3025H116.914V8.50768H122.426C122.938 8.50768 123.429 8.30443 123.79 7.94266C124.152 7.58089 124.356 7.09022 124.356 6.57859C124.362 6.33157 124.32 6.08571 124.231 5.85505C124.142 5.6244 124.009 5.41347 123.839 5.23432C123.669 5.05517 123.465 4.91132 123.239 4.81097C123.013 4.71063 122.77 4.65576 122.522 4.64951L122.457 4.65674Z" fill="white"/>
<path d="M65.5106 33.2024H66.2343L68.1882 37.673H67.3632L66.9121 36.6024H64.8135L64.3552 37.673H63.5568L65.5106 33.2024ZM66.6275 35.9007L65.8604 34.1235L65.0981 35.9007H66.6275Z" fill="white"/>
<path d="M104.47 35.4666V35.4522C104.457 34.8565 104.681 34.2801 105.093 33.8496C105.505 33.4191 106.071 33.1698 106.667 33.1566H106.761C107.083 33.1444 107.405 33.1997 107.704 33.3189C108.004 33.438 108.275 33.6185 108.5 33.8486L107.999 34.4249C107.839 34.2552 107.646 34.1189 107.433 34.0241C107.22 33.9293 106.99 33.8779 106.756 33.8727C106.56 33.8762 106.366 33.9183 106.186 33.9966C106.006 34.075 105.843 34.188 105.707 34.3293C105.57 34.4706 105.463 34.6374 105.391 34.8201C105.319 35.0028 105.284 35.198 105.287 35.3943C105.287 35.4112 105.287 35.4256 105.287 35.4401C105.287 36.3106 105.903 37.0147 106.754 37.0147C106.994 37.0123 107.231 36.9603 107.451 36.8619C107.67 36.7636 107.866 36.621 108.028 36.4432L108.529 36.9496C108.306 37.206 108.029 37.4095 107.717 37.5454C107.405 37.6814 107.067 37.7464 106.727 37.7357C106.135 37.7422 105.565 37.5135 105.141 37.0998C104.717 36.6862 104.475 36.1213 104.467 35.5293L104.47 35.4666Z" fill="white"/>
<path d="M109.629 35.4666V35.4522C109.629 34.8363 109.874 34.2457 110.31 33.8102C110.745 33.3747 111.336 33.13 111.952 33.13C112.568 33.13 113.159 33.3747 113.595 33.8102C114.03 34.2457 114.275 34.8363 114.275 35.4522C114.277 36.068 114.034 36.6593 113.599 37.0959C113.165 37.5326 112.574 37.7787 111.958 37.7803C111.342 37.7819 110.751 37.5388 110.314 37.1045C109.877 36.6701 109.631 36.0801 109.629 35.4642V35.4666ZM113.455 35.4666V35.4522C113.471 35.049 113.325 34.656 113.051 34.3598C112.777 34.0636 112.397 33.8884 111.993 33.8727H111.945C111.547 33.874 111.166 34.0329 110.885 34.3144C110.605 34.596 110.447 34.9774 110.447 35.375C110.446 35.3967 110.446 35.4184 110.447 35.4401C110.431 35.8402 110.575 36.2302 110.846 36.5249C111.117 36.8195 111.494 36.9948 111.894 37.0123H111.947C112.344 37.0123 112.724 36.8552 113.005 36.5754C113.286 36.2956 113.444 35.916 113.445 35.5197C113.45 35.5022 113.454 35.4845 113.457 35.4666H113.455Z" fill="white"/>
<path d="M115.829 33.2337H116.661L118.012 35.334L119.362 33.2337H120.192V37.673H119.413V34.49L118.009 36.5831H117.985L116.596 34.5021V37.673H115.826L115.829 33.2337Z" fill="white"/>
<path d="M121.943 33.2337H123.695C124.734 33.2337 125.383 33.8221 125.383 34.7167C125.383 35.715 124.585 36.2334 123.605 36.2334H122.725V37.661H121.943V33.2337ZM123.632 35.5414C124.223 35.5414 124.597 35.2134 124.597 34.748V34.736C124.597 34.2151 124.223 33.9426 123.632 33.9426H122.725V35.5414H123.632Z" fill="white"/>
<path d="M127.916 33.2024H128.64L130.594 37.673H129.769L129.318 36.6024H127.219L126.761 37.673H125.962L127.916 33.2024ZM129.035 35.9007L128.266 34.1235L127.506 35.9007H129.035Z" fill="white"/>
<path d="M131.964 33.2337H132.687L135.066 36.3034V33.2337H135.835V37.673H135.182L132.731 34.5141V37.673H131.961L131.964 33.2337Z" fill="white"/>
<path d="M138.889 35.9224L137.128 33.2337H138.054L139.292 35.1941L140.549 33.2337H141.444L139.675 35.9007V37.6706H138.889V35.9224Z" fill="white"/>
<path d="M100.907 36.7616C100.785 36.7676 100.664 36.7495 100.55 36.708C100.435 36.6666 100.331 36.6029 100.241 36.5204C100.104 36.324 100.037 36.087 100.051 35.8477V34.2465H100.854C100.872 34.2465 100.889 34.2394 100.902 34.2267C100.914 34.2141 100.921 34.1969 100.921 34.179V33.4074C100.921 33.3892 100.914 33.3718 100.902 33.3588C100.889 33.3457 100.872 33.3381 100.854 33.3374H100.051V32.2837C100.05 32.2655 100.042 32.2484 100.029 32.2358C100.016 32.2232 99.9988 32.2161 99.9806 32.2162H98.9482C98.9301 32.2161 98.9126 32.2232 98.8996 32.2358C98.8865 32.2484 98.8789 32.2655 98.8783 32.2837V35.8477C98.8589 36.1136 98.9013 36.3803 99.0021 36.6271C99.103 36.8739 99.2595 37.0941 99.4596 37.2704C99.846 37.5565 100.321 37.6982 100.801 37.6706H100.905C100.922 37.6706 100.94 37.6635 100.952 37.6509C100.965 37.6382 100.972 37.621 100.972 37.6031V36.8315C100.972 36.8138 100.965 36.7967 100.953 36.7837C100.941 36.7707 100.925 36.7628 100.907 36.7616Z" fill="white"/>
<path d="M87.9848 36.747H87.9342C87.824 36.7593 87.7125 36.7472 87.6075 36.7118C87.5025 36.6764 87.4065 36.6185 87.3263 36.5421C87.1814 36.3301 87.1149 36.0743 87.1382 35.8187V31.5843C87.1385 31.5753 87.137 31.5662 87.1337 31.5578C87.1305 31.5493 87.1255 31.5416 87.1192 31.535C87.1129 31.5285 87.1054 31.5233 87.097 31.5198C87.0887 31.5162 87.0797 31.5144 87.0706 31.5144H86.0358C86.0177 31.515 86.0005 31.5227 85.9879 31.5357C85.9753 31.5488 85.9683 31.5662 85.9683 31.5843V35.8307C85.9683 36.489 86.154 36.9689 86.5399 37.2968C86.8895 37.5622 87.3222 37.6947 87.7605 37.6706C87.8377 37.6706 87.9149 37.6706 88.0017 37.6706C88.0192 37.67 88.0358 37.6626 88.0479 37.65C88.0601 37.6374 88.0668 37.6206 88.0668 37.6031V36.8242C88.0671 36.8151 88.0653 36.8059 88.0615 36.7976C88.0578 36.7892 88.0522 36.7818 88.0451 36.776C88.0314 36.7632 88.0132 36.7563 87.9945 36.7567" fill="white"/>
<path d="M75.9264 33.2241C75.5065 33.2312 75.1052 33.3986 74.8047 33.6919L74.7879 33.3977C74.7879 33.3798 74.7807 33.3626 74.7681 33.35C74.7554 33.3373 74.7382 33.3302 74.7203 33.3302H73.7916C73.7731 33.3302 73.7553 33.3376 73.7422 33.3507C73.729 33.3638 73.7217 33.3816 73.7217 33.4001V37.5428C73.7217 37.5614 73.729 37.5792 73.7422 37.5923C73.7553 37.6054 73.7731 37.6128 73.7916 37.6128H74.824C74.8426 37.6128 74.8604 37.6054 74.8735 37.5923C74.8866 37.5792 74.894 37.5614 74.894 37.5428V34.695C75.2703 34.2658 75.4391 34.1983 75.6876 34.1983C76.035 34.1983 76.4113 34.4394 76.4113 35.0929V37.5501C76.4119 37.5684 76.4194 37.5859 76.4324 37.5989C76.4454 37.6118 76.4628 37.6194 76.4812 37.62H77.516C77.5251 37.62 77.5341 37.6182 77.5425 37.6146C77.5508 37.6111 77.5584 37.6059 77.5647 37.5994C77.571 37.5929 77.5759 37.5851 77.5791 37.5767C77.5824 37.5682 77.5839 37.5591 77.5836 37.5501V34.8735C77.591 34.6637 77.5569 34.4546 77.4832 34.2581C77.4096 34.0615 77.2978 33.8815 77.1544 33.7282C77.011 33.575 76.8386 33.4516 76.6474 33.365C76.4561 33.2785 76.2496 33.2306 76.0398 33.2241C76.0044 33.2217 75.969 33.2217 75.9336 33.2241" fill="white"/>
<path d="M82.1425 35.1532C82.1908 34.5093 82.5188 34.138 83.0447 34.138C83.6236 34.138 83.8817 34.4346 83.8817 35.1025V35.1604L82.1425 35.1532ZM83.0206 33.2241C81.607 33.2241 80.975 34.3502 80.975 35.4667C80.975 36.5831 81.6143 37.7044 83.0423 37.7044C83.3408 37.713 83.638 37.6623 83.9167 37.5551C84.1954 37.4478 84.45 37.2863 84.6657 37.0799C84.6761 37.0673 84.6818 37.0515 84.6818 37.0352C84.6818 37.019 84.6761 37.0032 84.6657 36.9906L84.2532 36.4336C84.2479 36.4262 84.2412 36.4199 84.2335 36.4151C84.2257 36.4103 84.2171 36.4071 84.208 36.4058C84.199 36.4044 84.1898 36.4049 84.181 36.4072C84.1722 36.4095 84.1639 36.4136 84.1567 36.4191C83.8617 36.6461 83.5035 36.7758 83.1315 36.7905H83.0447C82.5623 36.776 82.2414 36.4529 82.1377 35.8814H84.8659C84.8827 35.8822 84.8991 35.8767 84.912 35.866C84.925 35.8553 84.9335 35.8401 84.9358 35.8235C84.9602 35.6639 84.9731 35.5027 84.9744 35.3413C84.9744 34.0247 84.2508 33.2386 83.0133 33.2386" fill="white"/>
<path d="M91.2462 33.2241C90.8268 33.2306 90.426 33.3981 90.1269 33.6919L90.11 33.3977C90.1094 33.3796 90.1017 33.3624 90.0887 33.3498C90.0756 33.3372 90.0582 33.3302 90.0401 33.3302H89.1114C89.0932 33.3308 89.0761 33.3385 89.0634 33.3515C89.0508 33.3646 89.0438 33.382 89.0438 33.4001V37.5428C89.0438 37.561 89.0508 37.5784 89.0634 37.5915C89.0761 37.6045 89.0932 37.6121 89.1114 37.6128H90.1462C90.1641 37.6128 90.1813 37.6057 90.1939 37.593C90.2066 37.5803 90.2137 37.5632 90.2137 37.5453V34.695C90.5924 34.2658 90.7589 34.1983 91.0098 34.1983C91.3571 34.1983 91.7334 34.4394 91.7334 35.0929V37.5501C91.7334 37.5686 91.7408 37.5864 91.7539 37.5995C91.767 37.6126 91.7848 37.62 91.8034 37.62H92.8358C92.8539 37.62 92.8714 37.613 92.8844 37.6004C92.8975 37.5878 92.9051 37.5706 92.9057 37.5525V34.8735C92.9194 34.4498 92.7642 34.0381 92.4742 33.7288C92.1843 33.4195 91.7833 33.2379 91.3595 33.2241C91.3242 33.2217 91.2887 33.2217 91.2534 33.2241" fill="white"/>
<path d="M95.0525 35.1532C95.1007 34.5093 95.4288 34.138 95.9547 34.138C96.5336 34.138 96.7941 34.4346 96.7941 35.1025V35.1604L95.0525 35.1532ZM95.9305 33.2241C94.5194 33.2241 93.885 34.3502 93.885 35.4667C93.885 36.5831 94.5242 37.7044 95.9547 37.7044C96.2531 37.7129 96.5503 37.6621 96.829 37.5549C97.1077 37.4477 97.3623 37.2862 97.578 37.0799C97.588 37.0671 97.5934 37.0514 97.5934 37.0352C97.5934 37.0191 97.588 37.0034 97.578 36.9906L97.1656 36.4336C97.1603 36.4262 97.1536 36.4199 97.1458 36.4151C97.1381 36.4103 97.1294 36.4071 97.1204 36.4058C97.1114 36.4044 97.1022 36.4049 97.0934 36.4072C97.0846 36.4095 97.0763 36.4136 97.0691 36.4191C96.7744 36.6464 96.4158 36.7754 96.0439 36.7881H95.9571C95.4746 36.7736 95.1538 36.4529 95.0501 35.8814H97.7855C97.8019 35.8816 97.8177 35.8758 97.8301 35.8652C97.8426 35.8545 97.8507 35.8397 97.853 35.8235C97.878 35.6591 97.8909 35.4931 97.8916 35.3268C97.8916 34.0102 97.168 33.2241 95.9305 33.2241Z" fill="white"/>
<path d="M75.649 30.8368C74.7425 30.8368 73.8564 31.1055 73.1027 31.609C72.349 32.1124 71.7616 32.828 71.4147 33.6651C71.0678 34.5023 70.9771 35.4235 71.1539 36.3122C71.3308 37.201 71.7673 38.0173 72.4082 38.6581C73.0492 39.2988 73.8658 39.7352 74.7549 39.912C75.6439 40.0887 76.5654 39.998 77.4029 39.6512C78.2403 39.3045 78.9561 38.7172 79.4597 37.9638C79.9633 37.2104 80.2321 36.3246 80.2321 35.4184C80.2321 34.2033 79.7493 33.038 78.8898 32.1788C78.0303 31.3195 76.8645 30.8368 75.649 30.8368ZM79.2866 35.4184C79.2861 36.1375 79.0723 36.8403 78.6723 37.438C78.2724 38.0357 77.7041 38.5014 77.0394 38.7762C76.3746 39.0511 75.6433 39.1228 74.9379 38.9822C74.2324 38.8416 73.5845 38.4951 73.076 37.9864C72.5675 37.4778 72.2213 36.8298 72.0811 36.1245C71.941 35.4192 72.0132 34.6882 72.2886 34.0239C72.5639 33.3596 73.0302 32.7918 73.6283 32.3923C74.2265 31.9929 74.9297 31.7797 75.649 31.7797C76.1269 31.7797 76.6001 31.8738 77.0416 32.0567C77.4831 32.2396 77.8842 32.5077 78.222 32.8456C78.5598 33.1835 78.8277 33.5847 79.0104 34.0261C79.193 34.4676 79.2869 34.9407 79.2866 35.4184Z" fill="white"/>
</svg>
