<svg width="19" height="19" viewBox="0 0 19 19" fill="none" xmlns="http://www.w3.org/2000/svg">
<path d="M10.9457 9.5L18.6558 1.75544C19.0688 1.34239 19.0688 0.688406 18.6558 0.309783C18.2428 -0.103261 17.5888 -0.103261 17.2101 0.309783L9.5 8.05435L1.75543 0.309783C1.34239 -0.103261 0.688406 -0.103261 0.309783 0.309783C-0.103261 0.722826 -0.103261 1.37681 0.309783 1.75544L8.01993 9.5L0.309783 17.2446C-0.103261 17.6576 -0.103261 18.3116 0.309783 18.6902C0.516304 18.8967 0.791667 19 1.03261 19C1.27355 19 1.54891 18.8967 1.75543 18.6902L9.5 10.9457L17.2446 18.6902C17.4511 18.8967 17.7264 19 17.9674 19C18.2083 19 18.4837 18.8967 18.6902 18.6902C19.1033 18.2772 19.1033 17.6232 18.6902 17.2446L10.9457 9.5Z" fill="white"/>
</svg>
